# xmcd
#
# Track frame offsets: 
#        150
#        24743
#        42882
#        59097
#        97002
#        134303
#        181253
#        220959
#        250273
#
# Disc length: 3617 seconds
#
# Revision: 3
# Processed by: cddbd v1.5.2PL0 Copyright (c) Steve Scherf et al.
# Submitted via: ExactAudioCopy v0.99pb5
#
DISCID=840e1f09
DTITLE=5 Geschwister (Dieter B. Kabus) - Vol. 5 - Im rätselhaften Herr
DTITLE=enhaus
DYEAR=2006
DGENRE=Vocal
TTITLE0=Das Kennenlernen
TTITLE1=Stürmischer Umzug
TTITLE2=Der Spiegel
TTITLE3=In der Gruft
TTITLE4=Aufschlussreiche Eröffnungen
TTITLE5=Das Turmzimmer
TTITLE6=Ein Wort, ein Wort ...
TTITLE7=Das Badehaus
TTITLE8=Wer zuletzt lacht ...
EXTD=www.gerth.de - ArtNo. 938335 YEAR: 2006
EXTT0=
EXTT1=
EXTT2=
EXTT3=
EXTT4=
EXTT5=
EXTT6=
EXTT7=
EXTT8=
PLAYORDER=
